HIERARCHY
ROOT root
{
	OFFSET	0	13.1	24.9
	CHANNELS 6  Xposition Yposition Zposition Xrotation Yrotation Zrotation
	JOINT spine_1
	{
		OFFSET	0	9.99999	0
		CHANNELS 3  Xrotation Yrotation Zrotation
		JOINT spine_2
		{
			OFFSET	0	112	-10
			CHANNELS 3  Xrotation Yrotation Zrotation
			JOINT spine_3
			{
				OFFSET	0	206.5	19.3
				CHANNELS 3  Xrotation Yrotation Zrotation
				JOINT spine_4
				{
					OFFSET	0	110.4	14.6
					CHANNELS 3  Xrotation Yrotation Zrotation
					JOINT neck_1
					{
						OFFSET	0	71.8	-50.3
						CHANNELS 3  Xrotation Yrotation Zrotation
						JOINT neck_2
						{
							OFFSET	0	86.2	-25.8
							CHANNELS 3  Xrotation Yrotation Zrotation
							JOINT head_ee
							{
								OFFSET	0	179.8	-8.7
								CHANNELS 3  Xrotation Yrotation Zrotation
								End Site
								{
									OFFSET	1	0	0
								}
							}
						}
					}
					JOINT left_clavicle
					{
						OFFSET	-43.2	22.4	-70.8
						CHANNELS 3  Xrotation Yrotation Zrotation
						JOINT left_shoulder
						{
							OFFSET	-93.9	-5.79999	48.7
							CHANNELS 3  Xrotation Yrotation Zrotation
							JOINT left_elbow
							{
								OFFSET	-291.4	-30.8	15.2
								CHANNELS 3  Xrotation Yrotation Zrotation
								JOINT left_lowarm_twist
								{
									OFFSET	-110.7	-3.89999	13.6
									CHANNELS 3  Xrotation Yrotation Zrotation
									JOINT left_hand
									{
										OFFSET	-110.7	-3.89999	13.6
										CHANNELS 3  Xrotation Yrotation Zrotation
										JOINT left_ee
										{
											OFFSET	-80.8	-5.10001	12.1
											CHANNELS 3  Xrotation Yrotation Zrotation
											End Site
											{
												OFFSET	1	0	0
											}
										}
									}
								}
							}
						}
					}
					JOINT right_clavicle
					{
						OFFSET	43.2	22.4	-70.8
						CHANNELS 3  Xrotation Yrotation Zrotation
						JOINT right_shoulder
						{
							OFFSET	93.9	-5.79999	48.7
							CHANNELS 3  Xrotation Yrotation Zrotation
							JOINT right_elbow
							{
								OFFSET	291.4	-30.8	15.2
								CHANNELS 3  Xrotation Yrotation Zrotation
								JOINT right_lowarm_twist
								{
									OFFSET	110.7	-3.89999	13.6
									CHANNELS 3  Xrotation Yrotation Zrotation
									JOINT right_hand
									{
										OFFSET	110.7	-3.89999	13.6
										CHANNELS 3  Xrotation Yrotation Zrotation
										JOINT right_ee
										{
											OFFSET	80.8	-5.10001	12.1
											CHANNELS 3  Xrotation Yrotation Zrotation
											End Site
											{
												OFFSET	1	0	0
											}
										}
									}
								}
							}
						}
					}
				}
			}
		}
	}
	JOINT left_hip
	{
		OFFSET	-82.8	-127.5	0.300001
		CHANNELS 3  Xrotation Yrotation Zrotation
		JOINT left_knee
		{
			OFFSET	-28.2	-396.7	2.2
			CHANNELS 3  Xrotation Yrotation Zrotation
			JOINT left_ankle
			{
				OFFSET	-11.7	-411.3	35.4
				CHANNELS 3  Xrotation Yrotation Zrotation
				JOINT left_toes
				{
					OFFSET	0	-60	-88.6
					CHANNELS 3  Xrotation Yrotation Zrotation
					JOINT left_foot_ee
					{
						OFFSET	-22.5	-16.5	-42.2
						CHANNELS 3  Xrotation Yrotation Zrotation
						End Site
						{
							OFFSET	1	0	0
						}
					}
				}
			}
		}
	}
	JOINT right_hip
	{
		OFFSET	82.8	-127.5	0.300001
		CHANNELS 3  Xrotation Yrotation Zrotation
		JOINT right_knee
		{
			OFFSET	28.2	-396.7	2.2
			CHANNELS 3  Xrotation Yrotation Zrotation
			JOINT right_ankle
			{
				OFFSET	11.7	-411.3	35.4
				CHANNELS 3  Xrotation Yrotation Zrotation
				JOINT right_toes
				{
					OFFSET	0	-60	-88.6
					CHANNELS 3  Xrotation Yrotation Zrotation
					JOINT right_foot_ee
					{
						OFFSET	22.5	-16.5	-42.2
						CHANNELS 3  Xrotation Yrotation Zrotation
						End Site
						{
							OFFSET	1	0	0
						}
					}
				}
			}
		}
	}
}
MOTION
Frames: 16
Frame Time: 0.02
2281.1 731.549 -1548.45 -147.218 72.5094 138.423 2.71431 0.899644 3.17082 2.71963 0.696162 3.22157 2.75782 0.16266 3.29184 2.74334 0.68023 3.22496 -1.70113 3.50051 0.216919 -1.68112 6.13658 0.675378 -0.0 0.0 -0.0 -3.34653 -7.89541 -7.84856 -35.8042 -42.6174 62.1149 0.931785 -24.7767 0.204672 -3.49638 -0.136237 0.42557 2.78927 4.06578 20.5616 -0.0 0.0 -0.0 9.97466 -9.48104 -18.8668 -3.17413 19.4824 -58.821 1.19663 30.6573 -0.328016 39.7746 0.337588 4.96909 1.28799 1.51475 -8.01981 0.0 0.0 0.0 41.6998 -4.91114 6.67041 -39.7158 -0.448784 5.95846 -6.44304 -5.14066 0.983614 -5.82457 0.0 0.0 -0.0 0.0 -0.0 5.61347 -2.25828 2.16084 -11.4937 -0.300019 -1.73543 33.2361 -0.152809 4.2443 -8.6928 0.0 0.0 0.0 0.0 0.0 
2274.15 734.978 -1551.07 -148.415 71.9514 139.774 2.60719 0.832081 3.14434 2.61247 0.630418 3.19085 2.64676 0.0963757 3.25104 2.63253 0.608342 3.19512 -1.95844 3.06816 0.24114 -1.94405 5.34781 0.655611 -0.0 0.0 -0.0 -3.54471 -7.18783 -8.14524 -38.6162 -42.2615 61.7156 1.00477 -26.4606 0.236233 -2.46979 -0.0935422 0.301477 3.01613 3.91314 22.1196 -0.0 0.0 -0.0 9.87858 -10.1666 -18.6133 -2.67301 19.3993 -57.5253 1.52046 36.9843 -0.508534 39.6575 0.331568 4.95539 1.06615 -0.193718 -7.21795 0.0 0.0 0.0 43.4987 -0.62907 6.17135 -34.2056 -0.139855 5.17043 -12.0736 -8.89065 1.89332 -8.14654 0.0 0.0 -0.0 0.0 -0.0 3.93752 -1.59546 1.34359 -9.62805 -0.275103 -1.45026 31.4403 -0.37586 4.05936 -7.92985 0.0 0.0 0.0 0.0 0.0 
2260.24 741.151 -1553.82 -149.733 71.5273 141.759 2.57907 0.841128 3.00929 2.58387 0.648026 3.05666 2.61777 0.13429 3.12165 2.60472 0.625378 3.06137 -2.20877 2.7812 0.0785184 -2.1967 4.9669 0.455997 -0.0 0.0 -0.0 -3.79685 -6.718 -8.59031 -39.8152 -42.0426 61.8753 0.984715 -26.0026 0.227368 -2.47862 -0.0939001 0.302548 3.07982 4.58433 22.8259 -0.0 0.0 -0.0 9.92493 -10.1169 -18.7051 -2.03356 19.6113 -57.2849 1.59229 38.2626 -0.552384 39.4951 0.32326 4.93635 1.03395 -0.354256 -7.06646 0.0 0.0 0.0 43.8206 -0.220027 6.60084 -32.355 -0.0533189 4.89969 -12.9476 -9.9149 2.04432 -8.68272 0.0 0.0 -0.0 0.0 -0.0 3.24806 -1.88504 0.424518 -8.73699 -0.259928 -1.31437 31.2103 -0.846354 4.03229 -7.97425 0.0 0.0 0.0 0.0 0.0 
2247.88 744.216 -1555.66 -150.282 70.6157 142.347 2.80776 0.850578 3.06271 2.81274 0.654063 3.11057 2.8472 0.144077 3.17526 2.8337 0.643497 3.11277 -2.46221 2.40744 -0.147795 -2.45237 4.47619 0.176969 -0.0 0.0 -0.0 -3.95061 -6.57063 -8.88461 -40.67 -41.9945 62.026 0.968153 -25.6217 0.220157 -2.491 -0.0944021 0.304049 3.16428 5.54328 23.7847 -0.0 0.0 -0.0 9.98357 -10.0387 -18.8231 -1.17988 19.95 -56.7154 1.66049 39.4361 -0.59517 39.2619 0.31143 4.90898 0.977656 -0.611752 -6.79253 0.0 0.0 0.0 44.0894 0.266448 7.09106 -29.7553 0.0533628 4.51503 -14.2042 -11.2512 2.264 -9.43484 0.0 0.0 -0.0 0.0 -0.0 2.15642 -2.34482 -0.454288 -7.48698 -0.235082 -1.12417 30.8422 -1.52434 3.98977 -8.03562 0.0 0.0 0.0 0.0 0.0 
2244.56 740.966 -1558.74 -151.528 69.7665 144.006 3.08337 0.819612 3.0479 3.08833 0.624102 3.09382 3.12055 0.132223 3.15331 3.10723 0.62833 3.09296 -2.83311 1.87694 -0.47341 -2.82543 3.77698 -0.225416 -0.0 0.0 -0.0 -4.11407 -6.75095 -9.25669 -41.1094 -42.1652 62.21 0.953448 -25.2814 0.213837 -2.50851 -0.0951124 0.306172 3.27717 6.90104 25.0862 -0.0 0.0 -0.0 10.1368 -9.97441 -19.1171 -0.281906 20.4045 -56.0063 1.75275 40.9628 -0.65472 38.9401 0.295285 4.87112 0.896461 -0.988566 -6.40052 0.0 0.0 0.0 43.9848 0.818697 7.66913 -26.4451 0.163729 4.01908 -15.9771 -13.1135 2.58224 -10.5097 0.0 0.0 -0.0 0.0 -0.0 1.2598 -2.8987 -1.49577 -5.60982 -0.189986 -0.839637 30.2684 -2.50062 3.92442 -8.15044 0.0 0.0 0.0 0.0 0.0 
2236.63 734.384 -1558.94 -152.206 68.8647 144.775 3.18015 0.759052 3.0718 3.18523 0.562145 3.11382 3.21409 0.0729739 3.16326 3.20058 0.571392 3.11213 -3.41819 1.15548 -0.885465 -3.41198 2.78994 -0.74289 -0.0 0.0 -0.0 -4.44074 -6.93131 -9.97179 -41.9629 -42.2774 62.2945 0.93225 -24.7876 0.204867 -2.532 -0.0960662 0.309019 3.43285 8.84231 26.8868 -0.0 0.0 -0.0 10.2902 -9.95338 -19.4077 0.774564 20.8472 -54.668 1.87367 42.8619 -0.735504 38.4809 0.272618 4.81695 0.778458 -1.51795 -5.82531 0.0 0.0 0.0 44.7911 1.40319 7.87955 -21.6944 0.271657 3.29824 -18.4731 -15.7066 3.04834 -12.0384 0.0 0.0 -0.0 0.0 -0.0 -0.405007 -3.71951 -2.19843 -3.37383 -0.124134 -0.502823 29.3207 -4.03947 3.81773 -8.33951 0.0 0.0 0.0 0.0 0.0 
2225.27 735.11 -1559.52 -153.315 69.0928 146.299 3.16559 0.740856 3.09624 3.17076 0.542433 3.13705 3.19875 0.0490148 3.18318 3.18504 0.550874 3.13558 -4.29848 0.16243 -1.49575 -4.29081 1.43669 -1.5086 -0.0 0.0 -0.0 -4.60339 -6.79766 -10.2885 -42.005 -42.6097 63.208 0.922955 -24.5698 0.200986 -2.48867 -0.0943073 0.303766 3.65012 11.518 29.3478 -0.0 0.0 -0.0 10.5193 -9.94684 -19.8404 1.3279 21.3285 -54.3019 2.04215 45.3257 -0.852768 37.8481 0.242095 4.74201 0.623537 -2.27769 -5.10007 0.0 0.0 0.0 46.0532 1.96538 8.58247 -15.7677 0.322027 2.39068 -21.9714 -19.2758 3.74106 -14.2199 0.0 0.0 -0.0 0.0 -0.0 -2.73618 -4.76471 -3.5667 -0.242283 -0.00990036 -0.0358626 27.9439 -6.1849 3.66433 -8.61087 0.0 0.0 0.0 0.0 0.0 
2218.12 734.395 -1559.37 -153.892 68.2521 147.363 3.12171 0.705304 3.10897 3.12694 0.506144 3.1475 3.15307 0.00894268 3.18788 3.13926 0.512044 3.14655 -4.64376 -0.577973 -2.31126 -4.62813 0.689176 -2.46073 -0.0 0.0 -0.0 -4.84795 -6.24895 -10.6993 -42.5319 -42.0314 62.8695 0.9145 -24.371 0.197484 -2.72481 -0.103941 0.332374 3.58738 11.9631 29.0198 -0.0 0.0 -0.0 10.7864 -10.1045 -20.3262 2.00232 21.7483 -53.7302 2.12708 46.4919 -0.913774 37.3727 0.219707 4.68549 0.318124 -3.57332 -3.60111 0.0 0.0 0.0 44.4357 1.64751 8.94654 -11.8194 0.303416 1.78528 -21.0971 -21.5106 3.67094 -14.4845 0.0 0.0 -0.0 0.0 -0.0 -2.76878 -6.16074 -4.62828 1.14771 0.0489599 0.169311 27.2149 -9.13205 3.58709 -9.30312 0.0 0.0 0.0 0.0 0.0 
2214.03 734.123 -1560.63 -153.58 68.5305 146.943 3.33749 0.745248 3.19316 3.343 0.540658 3.23405 3.37141 0.0420894 3.27862 3.35685 0.559084 3.23092 -4.75409 -1.59436 -3.41885 -4.72183 -0.343484 -3.76231 -0.0 0.0 -0.0 -4.95098 -5.55932 -10.7836 -42.698 -41.3512 62.5847 0.907827 -24.2137 0.194738 -3.00738 -0.115623 0.366554 3.48268 12.4811 28.4082 -0.0 0.0 -0.0 10.9126 -10.2663 -20.5442 2.65285 22.1359 -53.1384 2.25454 48.1525 -1.00748 36.6946 0.188597 4.60457 -0.119566 -5.43989 -1.48971 0.0 0.0 0.0 45.2254 2.13652 10.0069 -7.10528 0.226667 1.06619 -20.8748 -24.3582 3.74517 -15.1671 0.0 0.0 -0.0 0.0 -0.0 -3.22205 -6.15803 -5.75982 1.22563 0.0524068 0.180772 26.9148 -11.8217 3.56494 -9.93841 0.0 0.0 0.0 0.0 0.0 
2206.78 731.511 -1561.68 -152.542 67.4341 146.832 3.52354 0.761076 3.25891 3.52928 0.552277 3.30067 3.55858 0.0543927 3.34606 3.54343 0.581868 3.29559 -4.97646 -2.99336 -4.9245 -4.9111 -1.79469 -5.534 -0.0 0.0 -0.0 -5.08792 -4.86405 -10.9338 -43.0319 -40.5928 62.0017 0.899144 -24.0083 0.191191 -3.40016 -0.132141 0.413972 3.31285 12.4247 27.1585 -0.0 0.0 -0.0 10.8512 -10.4196 -20.4077 3.32641 22.6072 -52.4257 2.39085 49.8168 -1.11035 36.8416 0.195259 4.62214 -0.736098 -8.22596 1.34167 0.0 0.0 0.0 45.0474 1.69366 10.023 -4.17983 0.149387 0.62394 -20.6744 -28.2551 3.89027 -15.8757 0.0 0.0 -0.0 0.0 -0.0 -3.45741 -6.10482 -6.00447 1.29886 0.0556607 0.191537 26.5113 -15.504 3.54734 -10.8017 0.0 0.0 0.0 0.0 0.0 
2192.04 727.439 -1558.34 -153.052 66.4787 147.156 3.65687 0.779188 3.42056 3.6632 0.560083 3.46314 3.69402 0.046213 3.50778 3.67736 0.599287 3.45658 -5.16606 -3.87181 -5.52233 -5.08463 -2.98118 -6.29278 -0.0 0.0 -0.0 -5.10672 -3.9016 -10.7819 -43.244 -39.9423 61.7635 0.892238 -23.8446 0.18839 -4.37496 -0.174541 0.53116 3.24427 12.4493 26.6726 -0.0 0.0 -0.0 10.6265 -10.4936 -19.9742 3.78818 22.8933 -51.9041 2.45387 50.5496 -1.15876 37.0481 0.204694 4.6468 -1.295 -11.3145 3.55992 0.0 0.0 0.0 45.0097 1.25126 10.1734 -0.544563 0.0220396 0.0806627 -20.7526 -29.2943 3.95969 -16.6806 0.0 0.0 -0.0 0.0 -0.0 -4.2312 -5.37277 -5.91149 1.29508 0.0554923 0.190982 26.309 -18.9444 3.56392 -11.0804 0.0 0.0 0.0 0.0 0.0 
2180.81 729.03 -1553.24 -151.539 65.9793 145.632 3.75534 0.805644 3.43196 3.7617 0.585763 3.47619 3.79401 0.0759078 3.52432 3.77724 0.631218 3.46824 -5.42315 -4.10667 -5.57761 -5.34027 -3.40325 -6.39039 -0.0 0.0 -0.0 -5.10536 -3.79885 -10.7585 -43.3321 -39.8246 61.9467 0.875558 -23.4474 0.1817 -4.73466 -0.19069 0.57422 3.19489 12.5592 26.3525 -0.0 0.0 -0.0 10.3158 -10.5609 -19.3834 4.61565 22.8604 -52.3143 2.54856 51.6091 -1.23243 37.0529 0.204918 4.64738 -1.40498 -11.5595 4.14782 0.0 0.0 0.0 45.2799 0.958174 11.1204 2.04544 -0.0896185 -0.301058 -20.9345 -28.5132 3.95268 -17.6005 0.0 0.0 -0.0 0.0 -0.0 -4.4463 -5.86882 -6.30458 1.49724 0.0645446 0.220681 26.3449 -18.8212 3.56647 -11.2815 0.0 0.0 0.0 0.0 0.0 
2171.73 728.437 -1551.5 -150.723 65.859 145.033 3.8603 0.874991 3.41243 3.86654 0.656211 3.46111 3.90283 0.154625 3.5193 3.88625 0.708159 3.45086 -5.81749 -4.38399 -5.57426 -5.73507 -3.96611 -6.43935 -0.0 0.0 -0.0 -4.94332 -3.68874 -10.4028 -43.0274 -39.7847 62.4466 0.856892 -23.0 0.17434 -5.22794 -0.213276 0.633107 3.12426 12.7014 25.8924 -0.0 0.0 -0.0 9.98422 -10.5342 -18.769 4.99377 22.5562 -53.2613 2.69047 53.1093 -1.34481 37.0627 0.205367 4.64855 -1.55569 -11.9193 4.93954 0.0 0.0 0.0 45.6563 0.543175 12.5002 5.19787 -0.248674 -0.758417 -21.2995 -27.2318 3.95544 -18.9106 0.0 0.0 -0.0 0.0 -0.0 -4.6275 -6.46935 -7.19749 1.7949 0.0780632 0.264353 26.4913 -18.4768 3.57906 -11.5541 0.0 0.0 0.0 0.0 0.0 
2161.75 723.382 -1551.21 -149.942 65.4757 144.028 4.14502 0.902513 3.40942 4.15122 0.683868 3.45986 4.18866 0.199819 3.52106 4.17215 0.753065 3.44548 -6.2587 -5.03232 -5.923 -6.16635 -4.96496 -6.91683 -0.0 0.0 -0.0 -4.93521 -3.5128 -10.3513 -43.5126 -39.3231 61.9192 0.838351 -22.5527 0.167162 -5.91418 -0.245541 0.714707 3.02525 12.8531 25.2374 -0.0 0.0 -0.0 9.4874 -10.4614 -17.8578 5.00859 22.7432 -52.7777 2.94211 55.5335 -1.54926 37.3113 0.21685 4.67818 -1.51624 -11.6833 4.79842 0.0 0.0 0.0 45.4869 0.445051 12.7585 6.17648 -0.303155 -0.898578 -21.2442 -25.3125 3.85381 -19.7786 0.0 0.0 -0.0 0.0 -0.0 -5.07471 -5.81928 -7.98457 2.21426 0.0974957 0.325762 26.7669 -17.9337 3.60421 -11.9093 0.0 0.0 0.0 0.0 0.0 
2144.24 722.24 -1553.89 -149.332 65.1982 144.149 4.41767 0.891019 3.31489 4.42353 0.678401 3.3648 4.45924 0.223709 3.42514 4.44368 0.761534 3.34698 -6.60233 -5.60126 -5.54441 -6.52301 -6.34448 -6.65436 -0.0 0.0 -0.0 -4.91472 -3.44258 -10.2953 -44.0384 -38.7914 61.1404 0.82402 -22.2049 0.161706 -6.85028 -0.291128 0.825389 2.88351 13.0552 24.3039 -0.0 0.0 -0.0 9.55076 -10.6074 -17.9596 4.57023 22.6354 -52.7365 3.04327 56.4308 -1.63311 37.3068 0.216642 4.67764 -1.43803 -11.2109 4.51838 0.0 0.0 0.0 45.794 0.20164 12.8542 6.46282 -0.31955 -0.939414 -21.9767 -23.923 3.92358 -20.2181 0.0 0.0 -0.0 0.0 -0.0 -6.08562 -5.28788 -7.73203 1.91323 0.0835008 0.281695 27.3334 -17.0028 3.6583 -12.3007 0.0 0.0 0.0 0.0 0.0 
2127.76 720.679 -1547.98 -149.073 65.4244 144.11 4.4355 0.911364 3.36833 4.44154 0.69531 3.41941 4.47875 0.234406 3.48143 4.46269 0.780973 3.40089 -7.08706 -6.33436 -4.86722 -7.02967 -8.26414 -6.14377 -0.0 0.0 -0.0 -4.81144 -3.24846 -10.0452 -43.9251 -38.5737 61.0667 0.806666 -21.7815 0.155206 -8.08531 -0.354034 0.970267 2.6861 13.1872 22.9733 -0.0 0.0 -0.0 9.54571 -11.1374 -17.8947 3.4586 22.0114 -52.3988 3.11669 57.0566 -1.69451 37.3016 0.216402 4.67703 -1.32689 -10.5431 4.11393 0.0 0.0 0.0 46.3496 -0.113928 12.9656 5.32629 -0.255687 -0.776862 -23.19 -22.0895 4.05854 -20.7848 0.0 0.0 -0.0 0.0 -0.0 -7.56538 -4.50958 -7.37047 1.47931 0.063737 0.218048 28.2348 -15.3984 3.74301 -12.7986 0.0 0.0 0.0 0.0 0.0 
